<svg xmlns="http://www.w3.org/2000/svg" width="177.235" height="21.69" viewBox="0 0 177.235 21.69">
  <g id="Group_106546" data-name="Group 106546" transform="translate(-20.765 -725.699)">
    <g id="Group_105667" data-name="Group 105667" transform="translate(-34.834 673.049)">
      <path id="Path_516" data-name="Path 516" d="M74.441,63.32c-.088.175-.175.35-.277.525A10.86,10.86,0,0,1,59.87,68.352l-.35-.175V63.335H74.426Z" transform="translate(1.798 4.893)" fill="#1d89c2"/>
      <path id="Path_517" data-name="Path 517" d="M70.965,53.788v4.988H56.35c.1-.19.19-.394.306-.583a10.836,10.836,0,0,1,9.583-5.543,10.481,10.481,0,0,1,3.107.481,9.99,9.99,0,0,1,1.429.554c.058.029.131.058.19.088Z" transform="translate(0.344 0)" fill="#f3ac23"/>
      <path id="Path_518" data-name="Path 518" d="M72.453,63.38a10.2,10.2,0,0,1-.51,3.048,12.664,12.664,0,0,1-.583,1.459H66.24V53.36s.131.058.19.088c.146.073.292.16.438.233a10.927,10.927,0,0,1,5.586,9.685Z" transform="translate(4.879 0.326)" fill="#df5832"/>
      <path id="Path_519" data-name="Path 519" d="M61.668,56.85V71.319l-.35-.175c-.117-.058-.233-.131-.335-.19a10.865,10.865,0,0,1-5.382-9.51,10.659,10.659,0,0,1,.423-2.9,11.287,11.287,0,0,1,.656-1.692h4.974Z" transform="translate(0 1.926)" fill="#bdca31"/>
      <path id="Path_520" data-name="Path 520" d="M72.256,63.275a10.2,10.2,0,0,1-.51,3.048L66.67,53.59A10.927,10.927,0,0,1,72.256,63.275Z" transform="translate(5.076 0.431)" fill="#eb6d37"/>
      <path id="Path_521" data-name="Path 521" d="M66.143,52.65a10.481,10.481,0,0,1,3.107.481L56.56,58.193a10.836,10.836,0,0,1,9.583-5.543Z" transform="translate(0.44 0)" fill="#f0e415"/>
      <path id="Path_522" data-name="Path 522" d="M60.78,68.785l12.806-5.1a10.941,10.941,0,0,1-12.806,5.1Z" transform="translate(2.376 5.058)" fill="#22b4cf"/>
      <path id="Path_523" data-name="Path 523" d="M60.992,70.412A10.865,10.865,0,0,1,55.61,60.9a10.659,10.659,0,0,1,.423-2.9l4.945,12.412Z" transform="translate(0.005 2.453)" fill="#d1d83b"/>
    </g>
    <text id="Powered_by_Crayon_d" data-name="Powered by Crayon&apos;d" transform="translate(49 742)" fill="#262c33" font-size="14" font-family="Poppins-Regular, Poppins"><tspan x="0" y="0">Powered by Crayon&apos;d</tspan></text>
  </g>
</svg>
